<?xml version="1.0" encoding="utf-8"?>
<!-- Generator: Adobe Illustrator 24.1.0, SVG Export Plug-In . SVG Version: 6.00 Build 0)  -->
<svg version="1.1" id="Capa_1" xmlns="http://www.w3.org/2000/svg" xmlns:xlink="http://www.w3.org/1999/xlink" x="0px" y="0px"
	 viewBox="0 0 805 600" style="enable-background:new 0 0 805 600;" xml:space="preserve">
<style type="text/css">
	.st0{fill:#FFFFFF;}
	.st1{fill:#A81917;stroke:#F18700;stroke-width:33.6488;}
	.st2{fill:none;stroke:#F18700;stroke-width:22.0777;}
	.st3{fill:none;stroke:#F18700;stroke-width:44.9441;}
	.st4{fill:none;stroke:#F18700;stroke-width:41.795;}
	.st5{fill:none;stroke:#F18700;stroke-width:11.7389;}
	.st6{fill:none;stroke:#F18700;stroke-width:41.0797;}
	.st7{fill:none;stroke:#F18700;stroke-width:22.5918;}
	.st8{fill:none;stroke:#F18700;stroke-width:8.8942;}
	.st9{fill:none;stroke:#79C6C0;stroke-width:32.7816;}
	.st10{fill:none;stroke:#79C6C0;stroke-width:33.7196;}
	.st11{fill:#B81A5D;stroke:#BCCF00;stroke-width:26.7174;}
	.st12{fill:none;stroke:#F18700;stroke-width:67.8658;}
	.st13{fill:none;stroke:#79C6C0;stroke-width:9.3533;}
	.st14{fill:none;stroke:#F18700;stroke-width:36.4573;}
	.st15{fill:none;stroke:#F18700;stroke-width:76.3347;}
	.st16{fill:#BF1A49;stroke:#BF1A49;stroke-width:33.6488;}
	.st17{fill:#E4003A;stroke:#E4003A;stroke-width:193.1727;}
	.st18{fill:#E4003A;stroke:#D51130;stroke-width:133.1163;}
	.st19{fill:#D51130;stroke:#D60D47;stroke-width:47.4903;}
	.st20{fill:none;stroke:#009A9A;stroke-width:32.7816;}
	.st21{fill:none;stroke:#009A9A;stroke-width:33.7196;}
	.st22{fill:none;stroke:#009640;stroke-width:26.7174;}
	.st23{fill:none;stroke:#009A9A;stroke-width:9.3533;}
	.st24{font-family:'AkzidenzGroteskBQ-Super';}
	.st25{font-size:11px;}
	.st26{fill:#7B7B7B;}
	.st27{font-family:'FagoCo-Black';}
	.st28{font-size:14px;}
</style>
<rect id="backgorund" y="5.3" class="st0" width="805" height="600"/>
<g>
	<rect x="30" y="20" width="5" height="11.7"/>
	<rect x="30" y="36.7" width="5" height="22.1"/>
	<rect x="30" y="63.8" width="5" height="22.6"/>
	<rect x="30" y="91.4" width="5" height="26.7"/>
	<rect x="400" y="45" width="5" height="26.7"/>
	<rect x="30" y="123.1" width="5" height="33.6"/>
	<rect x="30" y="161.8" width="5" height="33.7"/>
	<rect x="30" y="200.5" width="5" height="36.5"/>
	<rect x="30" y="242" width="5" height="41.1"/>
	<rect x="30" y="288" width="5" height="41.7"/>
	<rect x="30" y="334.7" width="5" height="41.8"/>
	<rect x="30" y="381.5" width="5" height="44.9"/>
	<rect x="770" y="42.5" width="5" height="60.4"/>
	<rect x="400" y="76.7" width="5" height="75.9"/>
	<rect x="30" y="431.4" width="5" height="76.3"/>
	<rect x="30" y="512.8" width="5" height="77.2"/>
	<rect x="770" y="107.9" width="5" height="81.2"/>
	<rect x="770" y="194.1" width="5" height="165.9"/>
	<rect x="770" y="365" width="5" height="202.5"/>
	<rect x="400" y="157.6" width="5" height="407.4"/>
</g>
<path class="st1" d="M35,140c182.5,0,182.5,90.9,365,90.9"/>
<path class="st2" d="M35,47.8c182.5,0,182.5,132.6,365,132.6"/>
<path class="st3" d="M35,404c182.5,0,182.5-5.6,365-5.6"/>
<path class="st4" d="M35,355.6c182.5,0,182.5-0.6,365-0.6"/>
<path class="st5" d="M35,25.9c182.5,0,182.5,137.6,365,137.6"/>
<path class="st6" d="M35,262.5c182.5,0,182.5,42.1,365,42.1"/>
<path class="st7" d="M35,75.1c182.5,0,182.5,127.6,365,127.6"/>
<path class="st8" d="M35,325.3c182.5,0,182.5,4.4,365,4.4"/>
<path class="st9" d="M35,304.4c182.5,0,182.5-177.6,365-177.6"/>
<path class="st10" d="M35,178.6c182.5,0,182.5-85.1,365-85.1"/>
<path class="st11" d="M35,104.8c182.5,0,182.5-46.4,365-46.4"/>
<path class="st12" d="M35,556.1c182.5,0,182.5-25,365-25"/>
<path class="st13" d="M35,517.5c182.5,0,182.5-369.6,365-369.6"/>
<path class="st14" d="M35,218.7c182.5,0,182.5,47.1,365,47.1"/>
<path class="st15" d="M35,469.6c182.5,0,182.5-10.6,365-10.6"/>
<path class="st16" d="M405,174.4c182.5,0,182.5-88.4,365-88.4"/>
<path class="st17" d="M405,468.4c182.5,0,182.5,2.5,365,2.5"/>
<path class="st18" d="M405,305.3c182.5,0,182.5-11.9,365-11.9"/>
<path class="st19" d="M405,215c182.5,0,182.5-49.6,365-49.6"/>
<path class="st20" d="M405,126.8c182.5,0,182.5,83.6,365,83.6"/>
<path class="st21" d="M405,93.6c182.5,0,182.5,31.1,365,31.1"/>
<path class="st22" d="M405,58.4c182.5,0,182.5-2.5,365-2.5"/>
<path class="st23" d="M405,147.9c182.5,0,182.5,221.8,365,221.8"/>
<text transform="matrix(1 0 0 1 39 25.3505)" class="st24 st25">Aysén</text>
<text transform="matrix(1 0 0 1 39 47.2588)" class="st24 st25">Araucanía</text>
<text transform="matrix(1 0 0 1 39 74.5936)" class="st24 st25">Coquimbo</text>
<text transform="matrix(1 0 0 1 39 104.2482)" class="st24 st25">Magallanes</text>
<text transform="matrix(1 0 0 1 409 57.8397)" class="st24 st25">Medio Alto</text>
<text transform="matrix(1 0 0 1 39 139.4313)" class="st24 st25">Antofagasta</text>
<text transform="matrix(1 0 0 1 39 178.1155)" class="st24 st25">Los Ríos</text>
<text transform="matrix(1 0 0 1 39 218.2039)" class="st24 st25">O`Higgins</text>
<text transform="matrix(1 0 0 1 39 261.9724)" class="st24 st25">Bíobío</text>
<text transform="matrix(1 0 0 1 39 308.3502)" class="st24 st25">Los Lagos</text>
<text transform="matrix(1 0 0 1 39 355.0857)" class="st24 st25">Atacama</text>
<text transform="matrix(1 0 0 1 39 403.4552)" class="st24 st25">Arica y Parinacota</text>
<text transform="matrix(1 0 0 1 737.5615 72.1641)" class="st24 st25">Alto</text>
<text transform="matrix(1 0 0 1 409 114.1257)" class="st24 st25">Medio Bajo</text>
<text transform="matrix(1 0 0 1 39 469.0945)" class="st24 st25">Valparaíso</text>
<text transform="matrix(1 0 0 1 39 550.8715)" class="st24 st25">Maule</text>
<text transform="matrix(1 0 0 1 706.2676 147.9521)" class="st24 st25">Medio Alto</text>
<text transform="matrix(1 0 0 1 703.665 276.506)" class="st24 st25">Medio Bajo</text>
<text transform="matrix(1 0 0 1 735.3301 465.718)" class="st24 st25">Bajo</text>
<text transform="matrix(1 0 0 1 409 360.767)" class="st24 st25">Bajo</text>
<text transform="matrix(1 0 0 1 14.168 16)" class="st26 st27 st28">Región</text>
<text transform="matrix(1 0 0 1 373.4756 18)" class="st26 st27 st28">Nivel 2011</text>
<text transform="matrix(1 0 0 1 734.1445 16.5)" class="st26 st27 st28">Nivel 2020</text>
</svg>
